{
    "asset" : {
        "generator" : "Khronos glTF Blender I/O v3.2.43",
        "version" : "2.0"
    },
    "scene" : 0,
    "scenes" : [
        {
            "name" : "Scene",
            "nodes" : [
                0,
                1,
                2
            ]
        }
    ],
    "nodes" : [
        {
            "mesh" : 0,
            "name" : "hammer"
        },
        {
            "mesh" : 1,
            "name" : "ground"
        },
        {
            "mesh" : 2,
            "name" : "rock"
        }
    ],
    "materials" : [
        {
            "doubleSided" : true,
            "name" : "Material",
            "pbrMetallicRoughness" : {
                "baseColorFactor" : [
                    0.4908265173435211,
                    0.506276547908783,
                    0.5543006658554077,
                    1
                ],
                "roughnessFactor" : 0.4462447166442871
            }
        },
        {
            "doubleSided" : true,
            "name" : "Material.003",
            "pbrMetallicRoughness" : {
                "baseColorFactor" : [
                    0.16146478056907654,
                    0.08586927503347397,
                    0.019033459946513176,
                    1
                ],
                "metallicFactor" : 0
            }
        },
        {
            "doubleSided" : true,
            "name" : "Material.004",
            "pbrMetallicRoughness" : {
                "baseColorFactor" : [
                    0.11215544492006302,
                    0.0822841078042984,
                    0,
                    1
                ],
                "metallicFactor" : 0.6730769276618958,
                "roughnessFactor" : 0.5480769276618958
            }
        },
        {
            "doubleSided" : true,
            "name" : "Material.001",
            "pbrMetallicRoughness" : {
                "baseColorFactor" : [
                    0.8000000715255737,
                    0.35614845156669617,
                    0.09147721529006958,
                    1
                ],
                "metallicFactor" : 0,
                "roughnessFactor" : 0.5
            }
        },
        {
            "doubleSided" : true,
            "name" : "Material.002",
            "pbrMetallicRoughness" : {
                "baseColorFactor" : [
                    0.2215365320444107,
                    0.1543525606393814,
                    0.11475230008363724,
                    1
                ],
                "metallicFactor" : 0,
                "roughnessFactor" : 0.5
            }
        }
    ],
    "meshes" : [
        {
            "name" : "Cube",
            "primitives" : [
                {
                    "attributes" : {
                        "POSITION" : 0,
                        "NORMAL" : 1,
                        "TEXCOORD_0" : 2
                    },
                    "indices" : 3,
                    "material" : 0
                },
                {
                    "attributes" : {
                        "POSITION" : 4,
                        "NORMAL" : 5,
                        "TEXCOORD_0" : 6
                    },
                    "indices" : 7,
                    "material" : 1
                },
                {
                    "attributes" : {
                        "POSITION" : 8,
                        "NORMAL" : 9,
                        "TEXCOORD_0" : 10
                    },
                    "indices" : 11,
                    "material" : 2
                }
            ]
        },
        {
            "name" : "Plane.001",
            "primitives" : [
                {
                    "attributes" : {
                        "POSITION" : 12,
                        "NORMAL" : 13,
                        "TEXCOORD_0" : 14
                    },
                    "indices" : 15,
                    "material" : 3
                }
            ]
        },
        {
            "name" : "Cube.005",
            "primitives" : [
                {
                    "attributes" : {
                        "POSITION" : 16,
                        "NORMAL" : 17,
                        "TEXCOORD_0" : 18
                    },
                    "indices" : 19,
                    "material" : 4
                }
            ]
        }
    ],
    "accessors" : [
        {
            "bufferView" : 0,
            "componentType" : 5126,
            "count" : 61940,
            "max" : [
                5.503293037414551,
                3.0797858238220215,
                1.2110731601715088
            ],
            "min" : [
                3.9598960876464844,
                -0.5427978038787842,
                -0.52616286277771
            ],
            "type" : "VEC3"
        },
        {
            "bufferView" : 1,
            "componentType" : 5126,
            "count" : 61940,
            "type" : "VEC3"
        },
        {
            "bufferView" : 2,
            "componentType" : 5126,
            "count" : 61940,
            "type" : "VEC2"
        },
        {
            "bufferView" : 3,
            "componentType" : 5123,
            "count" : 349542,
            "type" : "SCALAR"
        },
        {
            "bufferView" : 4,
            "componentType" : 5126,
            "count" : 7122,
            "max" : [
                4.9117817878723145,
                2.8608014583587646,
                0.8814961910247803
            ],
            "min" : [
                4.615018844604492,
                0.1620236188173294,
                0.2638932764530182
            ],
            "type" : "VEC3"
        },
        {
            "bufferView" : 5,
            "componentType" : 5126,
            "count" : 7122,
            "type" : "VEC3"
        },
        {
            "bufferView" : 6,
            "componentType" : 5126,
            "count" : 7122,
            "type" : "VEC2"
        },
        {
            "bufferView" : 7,
            "componentType" : 5123,
            "count" : 35520,
            "type" : "SCALAR"
        },
        {
            "bufferView" : 8,
            "componentType" : 5126,
            "count" : 400,
            "max" : [
                4.96440315246582,
                2.923916816711426,
                0.9555580019950867
            ],
            "min" : [
                4.6051926612854,
                2.327038049697876,
                0.5241254568099976
            ],
            "type" : "VEC3"
        },
        {
            "bufferView" : 9,
            "componentType" : 5126,
            "count" : 400,
            "type" : "VEC3"
        },
        {
            "bufferView" : 10,
            "componentType" : 5126,
            "count" : 400,
            "type" : "VEC2"
        },
        {
            "bufferView" : 11,
            "componentType" : 5123,
            "count" : 1140,
            "type" : "SCALAR"
        },
        {
            "bufferView" : 12,
            "componentType" : 5126,
            "count" : 30,
            "max" : [
                11.227608680725098,
                9.347456932067871,
                6.483752727508545
            ],
            "min" : [
                -1.7399005889892578,
                -1.3981096744537354,
                -6.483752727508545
            ],
            "type" : "VEC3"
        },
        {
            "bufferView" : 13,
            "componentType" : 5126,
            "count" : 30,
            "type" : "VEC3"
        },
        {
            "bufferView" : 14,
            "componentType" : 5126,
            "count" : 30,
            "type" : "VEC2"
        },
        {
            "bufferView" : 15,
            "componentType" : 5123,
            "count" : 78,
            "type" : "SCALAR"
        },
        {
            "bufferView" : 16,
            "componentType" : 5126,
            "count" : 3552,
            "max" : [
                9.30862808227539,
                0.618462860584259,
                3.671321392059326
            ],
            "min" : [
                1.820422887802124,
                -4.4282026290893555,
                -3.7272422313690186
            ],
            "type" : "VEC3"
        },
        {
            "bufferView" : 17,
            "componentType" : 5126,
            "count" : 3552,
            "type" : "VEC3"
        },
        {
            "bufferView" : 18,
            "componentType" : 5126,
            "count" : 3552,
            "type" : "VEC2"
        },
        {
            "bufferView" : 19,
            "componentType" : 5123,
            "count" : 13140,
            "type" : "SCALAR"
        }
    ],
    "bufferViews" : [
        {
            "buffer" : 0,
            "byteLength" : 743280,
            "byteOffset" : 0
        },
        {
            "buffer" : 0,
            "byteLength" : 743280,
            "byteOffset" : 743280
        },
        {
            "buffer" : 0,
            "byteLength" : 495520,
            "byteOffset" : 1486560
        },
        {
            "buffer" : 0,
            "byteLength" : 699084,
            "byteOffset" : 1982080
        },
        {
            "buffer" : 0,
            "byteLength" : 85464,
            "byteOffset" : 2681164
        },
        {
            "buffer" : 0,
            "byteLength" : 85464,
            "byteOffset" : 2766628
        },
        {
            "buffer" : 0,
            "byteLength" : 56976,
            "byteOffset" : 2852092
        },
        {
            "buffer" : 0,
            "byteLength" : 71040,
            "byteOffset" : 2909068
        },
        {
            "buffer" : 0,
            "byteLength" : 4800,
            "byteOffset" : 2980108
        },
        {
            "buffer" : 0,
            "byteLength" : 4800,
            "byteOffset" : 2984908
        },
        {
            "buffer" : 0,
            "byteLength" : 3200,
            "byteOffset" : 2989708
        },
        {
            "buffer" : 0,
            "byteLength" : 2280,
            "byteOffset" : 2992908
        },
        {
            "buffer" : 0,
            "byteLength" : 360,
            "byteOffset" : 2995188
        },
        {
            "buffer" : 0,
            "byteLength" : 360,
            "byteOffset" : 2995548
        },
        {
            "buffer" : 0,
            "byteLength" : 240,
            "byteOffset" : 2995908
        },
        {
            "buffer" : 0,
            "byteLength" : 156,
            "byteOffset" : 2996148
        },
        {
            "buffer" : 0,
            "byteLength" : 42624,
            "byteOffset" : 2996304
        },
        {
            "buffer" : 0,
            "byteLength" : 42624,
            "byteOffset" : 3038928
        },
        {
            "buffer" : 0,
            "byteLength" : 28416,
            "byteOffset" : 3081552
        },
        {
            "buffer" : 0,
            "byteLength" : 26280,
            "byteOffset" : 3109968
        }
    ],
    "buffers" : [
        {
            "byteLength" : 3136248,
            "uri" : "data:application/octet-stream;base64,"
        }
    ]
}
