{
    "asset" : {
        "generator" : "Khronos glTF Blender I/O v3.2.43",
        "version" : "2.0"
    },
    "scene" : 0,
    "scenes" : [
        {
            "name" : "Scene",
            "nodes" : [
                0,
                1,
                2,
                3,
                4,
                5,
                6,
                7,
                8,
                9
            ]
        }
    ],
    "nodes" : [
        {
            "mesh" : 0,
            "name" : "Icosphere",
            "scale" : [
                0.02636043168604374,
                0.02636043168604374,
                0.02636043168604374
            ],
            "translation" : [
                -0.28823956847190857,
                0.19207563996315002,
                0.6965647339820862
            ]
        },
        {
            "mesh" : 1,
            "name" : "Plane.041",
            "rotation" : [
                0.8140281438827515,
                -0.14386393129825592,
                0.556023895740509,
                0.08659587055444717
            ],
            "scale" : [
                1.1014996767044067,
                1.1014997959136963,
                1.1014997959136963
            ],
            "translation" : [
                0,
                1.589715838432312,
                0
            ]
        },
        {
            "mesh" : 2,
            "name" : "flange",
            "rotation" : [
                0.6825984716415405,
                -0.6825981140136719,
                -0.1845523715019226,
                0.18455247581005096
            ],
            "scale" : [
                0.6485528945922852,
                0.6485529541969299,
                0.6485529541969299
            ],
            "translation" : [
                -1.7729743719100952,
                0.06288447976112366,
                -0.022863328456878662
            ]
        },
        {
            "mesh" : 3,
            "name" : "pen",
            "rotation" : [
                0,
                0,
                0.7071067094802856,
                0.7071068286895752
            ],
            "scale" : [
                0.6485528945922852,
                0.6485528945922852,
                0.6485528945922852
            ],
            "translation" : [
                -1.7949738502502441,
                0.013019740581512451,
                0.17020370066165924
            ]
        },
        {
            "mesh" : 4,
            "name" : "nib",
            "rotation" : [
                0.16694997251033783,
                0.16694997251033783,
                0.687115490436554,
                0.6871155500411987
            ],
            "scale" : [
                0.7293747067451477,
                0.7293747067451477,
                0.7293747067451477
            ],
            "translation" : [
                -1.9112268686294556,
                0.07121911644935608,
                0.0473024845123291
            ]
        },
        {
            "mesh" : 5,
            "name" : "paper",
            "rotation" : [
                -0.7059890627861023,
                0,
                -0.7082228064537048,
                2.0261917654806894e-07
            ],
            "scale" : [
                8.165332794189453,
                8.165319442749023,
                9.57625961303711
            ],
            "translation" : [
                -0.8457691669464111,
                -0.19542241096496582,
                2.4659481048583984
            ]
        },
        {
            "mesh" : 6,
            "name" : "Cylinder",
            "scale" : [
                0.12337308377027512,
                0.0860036313533783,
                0.12337308377027512
            ],
            "translation" : [
                -0.2884329855442047,
                0.054510802030563354,
                0.6964942216873169
            ]
        },
        {
            "mesh" : 7,
            "name" : "Cylinder.001",
            "scale" : [
                0.10065387189388275,
                0.07016602158546448,
                0.10065387189388275
            ],
            "translation" : [
                -0.2884329855442047,
                0.054510802030563354,
                0.6964942216873169
            ]
        },
        {
            "mesh" : 8,
            "name" : "Cylinder.002",
            "scale" : [
                0.1373492181301117,
                0.1373492181301117,
                0.1373492181301117
            ],
            "translation" : [
                -0.2884329855442047,
                0.16765162348747253,
                0.6964942216873169
            ]
        },
        {
            "mesh" : 9,
            "name" : "Cylinder.003",
            "scale" : [
                0.1048474907875061,
                0.07308940589427948,
                0.1048474907875061
            ],
            "translation" : [
                -0.2884329855442047,
                0.054510802030563354,
                0.6964942216873169
            ]
        }
    ],
    "materials" : [
        {
            "doubleSided" : true,
            "name" : "leaves",
            "pbrMetallicRoughness" : {
                "baseColorFactor" : [
                    0.800000011920929,
                    0.800000011920929,
                    0.800000011920929,
                    1
                ],
                "metallicFactor" : 0,
                "roughnessFactor" : 0.5
            }
        },
        {
            "name" : "pen",
            "pbrMetallicRoughness" : {
                "baseColorTexture" : {
                    "index" : 0
                },
                "metallicFactor" : 0,
                "roughnessFactor" : 0.5
            }
        }
    ],
    "meshes" : [
        {
            "name" : "Icosphere",
            "primitives" : [
                {
                    "attributes" : {
                        "POSITION" : 0,
                        "NORMAL" : 1,
                        "TEXCOORD_0" : 2
                    },
                    "indices" : 3
                }
            ]
        },
        {
            "name" : "Plane.041",
            "primitives" : [
                {
                    "attributes" : {
                        "POSITION" : 4,
                        "NORMAL" : 5,
                        "TEXCOORD_0" : 6
                    },
                    "indices" : 7,
                    "material" : 0
                }
            ]
        },
        {
            "name" : "Circle.002",
            "primitives" : [
                {
                    "attributes" : {
                        "POSITION" : 8,
                        "NORMAL" : 9,
                        "TEXCOORD_0" : 10
                    },
                    "indices" : 11,
                    "material" : 1
                }
            ]
        },
        {
            "name" : "Circle.003",
            "primitives" : [
                {
                    "attributes" : {
                        "POSITION" : 12,
                        "NORMAL" : 13,
                        "TEXCOORD_0" : 14
                    },
                    "indices" : 15,
                    "material" : 1
                }
            ]
        },
        {
            "name" : "Circle.004",
            "primitives" : [
                {
                    "attributes" : {
                        "POSITION" : 16,
                        "NORMAL" : 17,
                        "TEXCOORD_0" : 18
                    },
                    "indices" : 19,
                    "material" : 1
                }
            ]
        },
        {
            "name" : "Cube.086",
            "primitives" : [
                {
                    "attributes" : {
                        "POSITION" : 20,
                        "NORMAL" : 21,
                        "TEXCOORD_0" : 22
                    },
                    "indices" : 23
                }
            ]
        },
        {
            "name" : "Cylinder",
            "primitives" : [
                {
                    "attributes" : {
                        "POSITION" : 24,
                        "NORMAL" : 25,
                        "TEXCOORD_0" : 26
                    },
                    "indices" : 27,
                    "material" : 1
                }
            ]
        },
        {
            "name" : "Cylinder.001",
            "primitives" : [
                {
                    "attributes" : {
                        "POSITION" : 28,
                        "NORMAL" : 29,
                        "TEXCOORD_0" : 30
                    },
                    "indices" : 31
                }
            ]
        },
        {
            "name" : "Cylinder.002",
            "primitives" : [
                {
                    "attributes" : {
                        "POSITION" : 32,
                        "NORMAL" : 33,
                        "TEXCOORD_0" : 34
                    },
                    "indices" : 35,
                    "material" : 1
                }
            ]
        },
        {
            "name" : "Cylinder.003",
            "primitives" : [
                {
                    "attributes" : {
                        "POSITION" : 36,
                        "NORMAL" : 37,
                        "TEXCOORD_0" : 38
                    },
                    "indices" : 27,
                    "material" : 1
                }
            ]
        }
    ],
    "textures" : [
        {
            "sampler" : 0,
            "source" : 0
        }
    ],
    "images" : [
        {
            "bufferView" : 12,
            "mimeType" : "image/png",
            "name" : "obliquePen_pen_Diffuse"
        }
    ],
    "accessors" : [
        {
            "bufferView" : 0,
            "componentType" : 5126,
            "count" : 17,
            "max" : [
                0.8944249749183655,
                1,
                0.8506399989128113
            ],
            "min" : [
                -0.8944249749183655,
                -0.4472149908542633,
                -0.8506399989128113
            ],
            "type" : "VEC3"
        },
        {
            "bufferView" : 1,
            "componentType" : 5126,
            "count" : 17,
            "type" : "VEC3"
        },
        {
            "bufferView" : 2,
            "componentType" : 5126,
            "count" : 17,
            "type" : "VEC2"
        },
        {
            "bufferView" : 3,
            "componentType" : 5123,
            "count" : 54,
            "type" : "SCALAR"
        },
        {
            "bufferView" : 4,
            "componentType" : 5126,
            "count" : 224,
            "max" : [
                0.23384107649326324,
                -0.013279810547828674,
                0.3854237496852875
            ],
            "min" : [
                -0.18211008608341217,
                -0.11421135067939758,
                -0.10859528183937073
            ],
            "type" : "VEC3"
        },
        {
            "bufferView" : 5,
            "componentType" : 5126,
            "count" : 224,
            "type" : "VEC3"
        },
        {
            "bufferView" : 6,
            "componentType" : 5126,
            "count" : 224,
            "type" : "VEC2"
        },
        {
            "bufferView" : 7,
            "componentType" : 5123,
            "count" : 336,
            "type" : "SCALAR"
        },
        {
            "bufferView" : 8,
            "componentType" : 5126,
            "count" : 22,
            "max" : [
                0.0654706284403801,
                0.13612425327301025,
                0.10808764398097992
            ],
            "min" : [
                -0.05732887238264084,
                -0.1367424577474594,
                -0.3171539008617401
            ],
            "type" : "VEC3"
        },
        {
            "bufferView" : 9,
            "componentType" : 5126,
            "count" : 22,
            "type" : "VEC3"
        },
        {
            "bufferView" : 10,
            "componentType" : 5126,
            "count" : 22,
            "type" : "VEC2"
        },
        {
            "bufferView" : 11,
            "componentType" : 5123,
            "count" : 42,
            "type" : "SCALAR"
        },
        {
            "bufferView" : 13,
            "componentType" : 5126,
            "count" : 200,
            "max" : [
                0.15584182739257812,
                0.05128512158989906,
                0.15584181249141693
            ],
            "min" : [
                -0.15584179759025574,
                -3.728404998779297,
                -0.15584181249141693
            ],
            "type" : "VEC3"
        },
        {
            "bufferView" : 14,
            "componentType" : 5126,
            "count" : 200,
            "type" : "VEC3"
        },
        {
            "bufferView" : 15,
            "componentType" : 5126,
            "count" : 200,
            "type" : "VEC2"
        },
        {
            "bufferView" : 16,
            "componentType" : 5123,
            "count" : 780,
            "type" : "SCALAR"
        },
        {
            "bufferView" : 17,
            "componentType" : 5126,
            "count" : 46,
            "max" : [
                0.034655507653951645,
                0.31428322196006775,
                0.08237440139055252
            ],
            "min" : [
                -0.05388655886054039,
                -0.3734876215457916,
                -0.08237440139055252
            ],
            "type" : "VEC3"
        },
        {
            "bufferView" : 18,
            "componentType" : 5126,
            "count" : 46,
            "type" : "VEC3"
        },
        {
            "bufferView" : 19,
            "componentType" : 5126,
            "count" : 46,
            "type" : "VEC2"
        },
        {
            "bufferView" : 20,
            "componentType" : 5123,
            "count" : 144,
            "type" : "SCALAR"
        },
        {
            "bufferView" : 21,
            "componentType" : 5126,
            "count" : 145,
            "max" : [
                0.15663205087184906,
                -0.01682293601334095,
                0.19079847633838654
            ],
            "min" : [
                -0.16016627848148346,
                -0.03011423349380493,
                -0.18913739919662476
            ],
            "type" : "VEC3"
        },
        {
            "bufferView" : 22,
            "componentType" : 5126,
            "count" : 145,
            "type" : "VEC3"
        },
        {
            "bufferView" : 23,
            "componentType" : 5126,
            "count" : 145,
            "type" : "VEC2"
        },
        {
            "bufferView" : 24,
            "componentType" : 5123,
            "count" : 576,
            "type" : "SCALAR"
        },
        {
            "bufferView" : 25,
            "componentType" : 5126,
            "count" : 51,
            "max" : [
                0.866025447845459,
                1,
                0.9293575882911682
            ],
            "min" : [
                -0.866025447845459,
                -1.1201871633529663,
                -0.9293575882911682
            ],
            "type" : "VEC3"
        },
        {
            "bufferView" : 26,
            "componentType" : 5126,
            "count" : 51,
            "type" : "VEC3"
        },
        {
            "bufferView" : 27,
            "componentType" : 5126,
            "count" : 51,
            "type" : "VEC2"
        },
        {
            "bufferView" : 28,
            "componentType" : 5123,
            "count" : 174,
            "type" : "SCALAR"
        },
        {
            "bufferView" : 29,
            "componentType" : 5126,
            "count" : 63,
            "max" : [
                0.866025447845459,
                0.3260040283203125,
                0.9293575882911682
            ],
            "min" : [
                -0.866025447845459,
                -1.1201871633529663,
                -0.9293575882911682
            ],
            "type" : "VEC3"
        },
        {
            "bufferView" : 30,
            "componentType" : 5126,
            "count" : 63,
            "type" : "VEC3"
        },
        {
            "bufferView" : 31,
            "componentType" : 5126,
            "count" : 63,
            "type" : "VEC2"
        },
        {
            "bufferView" : 32,
            "componentType" : 5123,
            "count" : 204,
            "type" : "SCALAR"
        },
        {
            "bufferView" : 33,
            "componentType" : 5126,
            "count" : 38,
            "max" : [
                0.866025447845459,
                0.11178356409072876,
                0.9293575882911682
            ],
            "min" : [
                -0.866025447845459,
                -0.1925429403781891,
                -0.9293575882911682
            ],
            "type" : "VEC3"
        },
        {
            "bufferView" : 34,
            "componentType" : 5126,
            "count" : 38,
            "type" : "VEC3"
        },
        {
            "bufferView" : 35,
            "componentType" : 5126,
            "count" : 38,
            "type" : "VEC2"
        },
        {
            "bufferView" : 36,
            "componentType" : 5123,
            "count" : 174,
            "type" : "SCALAR"
        },
        {
            "bufferView" : 37,
            "componentType" : 5126,
            "count" : 51,
            "max" : [
                0.866025447845459,
                1,
                0.9293575882911682
            ],
            "min" : [
                -0.866025447845459,
                -1.1201871633529663,
                -0.9293575882911682
            ],
            "type" : "VEC3"
        },
        {
            "bufferView" : 38,
            "componentType" : 5126,
            "count" : 51,
            "type" : "VEC3"
        },
        {
            "bufferView" : 39,
            "componentType" : 5126,
            "count" : 51,
            "type" : "VEC2"
        }
    ],
    "bufferViews" : [
        {
            "buffer" : 0,
            "byteLength" : 204,
            "byteOffset" : 0
        },
        {
            "buffer" : 0,
            "byteLength" : 204,
            "byteOffset" : 204
        },
        {
            "buffer" : 0,
            "byteLength" : 136,
            "byteOffset" : 408
        },
        {
            "buffer" : 0,
            "byteLength" : 108,
            "byteOffset" : 544
        },
        {
            "buffer" : 0,
            "byteLength" : 2688,
            "byteOffset" : 652
        },
        {
            "buffer" : 0,
            "byteLength" : 2688,
            "byteOffset" : 3340
        },
        {
            "buffer" : 0,
            "byteLength" : 1792,
            "byteOffset" : 6028
        },
        {
            "buffer" : 0,
            "byteLength" : 672,
            "byteOffset" : 7820
        },
        {
            "buffer" : 0,
            "byteLength" : 264,
            "byteOffset" : 8492
        },
        {
            "buffer" : 0,
            "byteLength" : 264,
            "byteOffset" : 8756
        },
        {
            "buffer" : 0,
            "byteLength" : 176,
            "byteOffset" : 9020
        },
        {
            "buffer" : 0,
            "byteLength" : 84,
            "byteOffset" : 9196
        },
        {
            "buffer" : 0,
            "byteLength" : 263747,
            "byteOffset" : 9280
        },
        {
            "buffer" : 0,
            "byteLength" : 2400,
            "byteOffset" : 273028
        },
        {
            "buffer" : 0,
            "byteLength" : 2400,
            "byteOffset" : 275428
        },
        {
            "buffer" : 0,
            "byteLength" : 1600,
            "byteOffset" : 277828
        },
        {
            "buffer" : 0,
            "byteLength" : 1560,
            "byteOffset" : 279428
        },
        {
            "buffer" : 0,
            "byteLength" : 552,
            "byteOffset" : 280988
        },
        {
            "buffer" : 0,
            "byteLength" : 552,
            "byteOffset" : 281540
        },
        {
            "buffer" : 0,
            "byteLength" : 368,
            "byteOffset" : 282092
        },
        {
            "buffer" : 0,
            "byteLength" : 288,
            "byteOffset" : 282460
        },
        {
            "buffer" : 0,
            "byteLength" : 1740,
            "byteOffset" : 282748
        },
        {
            "buffer" : 0,
            "byteLength" : 1740,
            "byteOffset" : 284488
        },
        {
            "buffer" : 0,
            "byteLength" : 1160,
            "byteOffset" : 286228
        },
        {
            "buffer" : 0,
            "byteLength" : 1152,
            "byteOffset" : 287388
        },
        {
            "buffer" : 0,
            "byteLength" : 612,
            "byteOffset" : 288540
        },
        {
            "buffer" : 0,
            "byteLength" : 612,
            "byteOffset" : 289152
        },
        {
            "buffer" : 0,
            "byteLength" : 408,
            "byteOffset" : 289764
        },
        {
            "buffer" : 0,
            "byteLength" : 348,
            "byteOffset" : 290172
        },
        {
            "buffer" : 0,
            "byteLength" : 756,
            "byteOffset" : 290520
        },
        {
            "buffer" : 0,
            "byteLength" : 756,
            "byteOffset" : 291276
        },
        {
            "buffer" : 0,
            "byteLength" : 504,
            "byteOffset" : 292032
        },
        {
            "buffer" : 0,
            "byteLength" : 408,
            "byteOffset" : 292536
        },
        {
            "buffer" : 0,
            "byteLength" : 456,
            "byteOffset" : 292944
        },
        {
            "buffer" : 0,
            "byteLength" : 456,
            "byteOffset" : 293400
        },
        {
            "buffer" : 0,
            "byteLength" : 304,
            "byteOffset" : 293856
        },
        {
            "buffer" : 0,
            "byteLength" : 348,
            "byteOffset" : 294160
        },
        {
            "buffer" : 0,
            "byteLength" : 612,
            "byteOffset" : 294508
        },
        {
            "buffer" : 0,
            "byteLength" : 612,
            "byteOffset" : 295120
        },
        {
            "buffer" : 0,
            "byteLength" : 408,
            "byteOffset" : 295732
        }
    ],
    "samplers" : [
        {
            "magFilter" : 9729,
            "minFilter" : 9987
        }
    ],
    "buffers" : [
        {
            "byteLength" : 296140,
            "uri" : "data:application/octet-stream;base64,"
        }
    ]
}
