<svg id="Avator" xmlns="http://www.w3.org/2000/svg" viewBox="0 0 108.01 97.54">
  <g id="Avator_Body">
    <path d="M211.57,689.68c-12.69-1.73-18.68-5.17-21.71-7.21-2.87-1.92-11.12-7.21-14.48-17.31-2.29-6.89-1.74-14.36-1.15-21.59a76.15,76.15,0,0,1,1.89-13.4c3.87-14.68,16.22-25.93,30-32.3a50.55,50.55,0,0,1,13-4.22c7.85-1.28,15.94,0,23.52,2.4a56.23,56.23,0,0,1,25.86,17.1c1.85,2.18,13.59,16.4,13.16,35.51a41.36,41.36,0,0,1-3.18,15.72,46.49,46.49,0,0,1-7.94,12.08C253.29,694.94,216.67,690.37,211.57,689.68Z" transform="translate(-173.71 -593.14)" style="fill: #eadcc2"/>
    <path d="M233.16,657.74l18.39-7.18" transform="translate(-173.71 -593.14)" style="fill: none;stroke: #057b86;stroke-linecap: round;stroke-miterlimit: 10;stroke-width: 5px"/>
    <path d="M267.55,644.31l8.09-6.8" transform="translate(-173.71 -593.14)" style="fill: none;stroke: #057b86;stroke-linecap: round;stroke-miterlimit: 10;stroke-width: 5px"/>
  </g>
  <g id="Avator_Eyes">
    <path d="M266.58,651.61c-2.64-1.8-3.78-4.78-4.46-6.51s-2.68-7.62-.77-13.83c1.35-4.34,5-7.57,8.57-6.67,3.31.83,5.33,4.18,6.23,5.79a21.39,21.39,0,0,1,2,13.5c-.4,2.11-1.22,6.47-4.37,8.35S267.17,652,266.58,651.61Z" transform="translate(-173.71 -593.14)" style="fill: #057b86"/>
    <path d="M232.78,667.73c-3.73-6-2.54-12.74-2-14.94s2.21-8.61,7.87-11.49a10.49,10.49,0,0,1,12.18,2,15.26,15.26,0,0,1,2.78,3.92,21.72,21.72,0,0,1,.5,18c-2,4.37-7,9.82-12.87,9C236.38,673.5,233.57,669,232.78,667.73Z" transform="translate(-173.71 -593.14)" style="fill: #057b86"/>
  </g>
</svg>
