<svg id="arrow" xmlns="http://www.w3.org/2000/svg" viewBox="0 0 112.19 98.15">
  <g>
    <path d="M531.13,420.1h0l-32.82-32.82a10,10,0,0,0-14.14,14.14l25.75,25.76-25.75,25.75a10,10,0,1,0,14.14,14.14l32.82-32.82h0a10,10,0,0,0,0-14.15Z" transform="translate(-473.74 -374.36)" style="fill: #231f20"/>
    <path d="M491.24,472.5a12.5,12.5,0,0,1-8.84-21.33l24-24-24-24a12.5,12.5,0,0,1,17.68-17.68l32.82,32.83a12.51,12.51,0,0,1,0,17.68l-.13.13-32.69,32.69A12.45,12.45,0,0,1,491.24,472.5Zm0-85.65a7.5,7.5,0,0,0-5.31,12.8l27.53,27.53L485.93,454.7a7.5,7.5,0,0,0,10.61,10.61l32.92-32.92a7.53,7.53,0,0,0,0-10.43l-.1-.09-32.82-32.82A7.44,7.44,0,0,0,491.24,386.85Z" transform="translate(-473.74 -374.36)" style="fill: #231f20"/>
  </g>
  <path d="M526.14,412.61h0l-32.83-32.82a10,10,0,0,0-14.14,14.14l25.76,25.76-25.76,25.75a10,10,0,1,0,14.14,14.14l32.83-32.82h0a10,10,0,0,0,0-14.15Z" transform="translate(-473.74 -374.36)" style="fill: #fff;stroke: #231f20;stroke-miterlimit: 10;stroke-width: 5px"/>
  <g>
    <path d="M580.5,420.1h0l-32.82-32.82a10,10,0,1,0-14.14,14.14l25.76,25.76-25.76,25.75a10,10,0,1,0,14.14,14.14l32.82-32.82h0a10,10,0,0,0,0-14.15Z" transform="translate(-473.74 -374.36)" style="fill: #231f20"/>
    <path d="M540.6,472.5a12.5,12.5,0,0,1-8.84-21.33l24-24-24-24a12.5,12.5,0,0,1,17.68-17.68l32.83,32.83a12.51,12.51,0,0,1,0,17.68l-.13.13-32.7,32.69A12.42,12.42,0,0,1,540.6,472.5Zm0-85.65a7.5,7.5,0,0,0-5.3,12.8l27.52,27.53L535.3,454.7a7.5,7.5,0,0,0,10.6,10.61l32.92-32.92a7.5,7.5,0,0,0,0-10.43l-.09-.09L545.9,389.05A7.44,7.44,0,0,0,540.6,386.85Z" transform="translate(-473.74 -374.36)" style="fill: #231f20"/>
  </g>
  <path d="M575.5,412.61h0l-32.82-32.82a10,10,0,0,0-14.15,14.14l25.76,25.76-25.76,25.75a10,10,0,0,0,14.15,14.14l32.82-32.82h0a10,10,0,0,0,0-14.15Z" transform="translate(-473.74 -374.36)" style="fill: #fff;stroke: #231f20;stroke-miterlimit: 10;stroke-width: 5px"/>
</svg>
