<svg class = "svg-loading" xmlns="http://www.w3.org/2000/svg"  viewBox="0 0 864 367.3">
  <defs>
    <style>
      .svg-loading1, .svg-loading3 {
        fill: none;
        stroke: #231f20;
        stroke-width: 7px;
      }

      .svg-loading{
        height: 15vh;
        display:flex;
        
      }

      svg-loading1 {
        stroke-linecap: round;
        stroke-linejoin: round;
      }

      .svg-loading2 {
        fill: #231f20;
      }

      .svg-loading3 {
        stroke-miterlimit: 10;
      }

      .wheel{
         stroke-dasharray: 360,40;

      }
      .dot{
         transform-origin: 503.3px 231.2px
      }
    </style>
  </defs>
    <path class="svg-loading1 wheel" d="M1101.3,594.2c-8.5-9.3-19.1-28.3-43.1-27.6-12.3.4-25.8,12.4-27.1,27.2-1.5,17,13.9,32.1,26.9,32.7,23.6,1.1,33.7-18.6,44.5-29.8s22.2-30.8,42-30.8c13.8,0,30.1,10.7,32.4,25.6,2.7,17.8-15.7,36-31,36C1124.2,627.6,1109.9,603.5,1101.3,594.2Z" transform="translate(-780.9 -290.4)"/>
    <path class="svg-loading2" d="M1012.6,628.6H953.3a1.9,1.9,0,0,1-1.9-1.9V523.5a1.8,1.8,0,0,1,1.9-1.9h4.1a1.8,1.8,0,0,1,1.8,1.9v95.4a1.9,1.9,0,0,0,1.9,1.8h51.5a1.9,1.9,0,0,1,1.8,1.9v4.1A1.9,1.9,0,0,1,1012.6,628.6Z" transform="translate(-780.9 -290.4)"/>
    <path class="svg-loading2" d="M1250,622.8a1.8,1.8,0,0,0-3.1-1.3,33.8,33.8,0,0,1-3.7,3.1,32.6,32.6,0,0,1-6.6,3.8,20.7,20.7,0,0,1-6.1,1.7,38.2,38.2,0,0,1-5.7.4,26.6,26.6,0,0,1-12.6-2.8,26.2,26.2,0,0,1-9.2-8,34.8,34.8,0,0,1-5.6-12.3,62.6,62.6,0,0,1-1.9-16.2,55.1,55.1,0,0,1,2.3-16.8,38.7,38.7,0,0,1,6.3-12.7,28.2,28.2,0,0,1,9.6-8,25,25,0,0,1,11.8-2.8,52.5,52.5,0,0,1,5.6.3,34.3,34.3,0,0,1,5.9,1.2,33.9,33.9,0,0,1,6.3,2.8l3.8,2.5a1.8,1.8,0,0,0,2.9-1.4V523.5a1.9,1.9,0,0,1,1.9-1.9h4.1a1.9,1.9,0,0,1,1.9,1.9V626.7a2,2,0,0,1-1.9,1.9h-4.1a2,2,0,0,1-1.9-1.9Zm0-52.4a1.7,1.7,0,0,0-.5-1.3,35.9,35.9,0,0,0-10.4-7.6,28.2,28.2,0,0,0-12.7-2.8,22.4,22.4,0,0,0-9.5,2,20.2,20.2,0,0,0-7.3,6.1,30.5,30.5,0,0,0-4.7,10.1,55.8,55.8,0,0,0-1.6,14.3c0,10.3,2,18.1,5.9,23.5s9.5,8,16.6,8a22.8,22.8,0,0,0,12.9-3.9,43.5,43.5,0,0,0,11-10.9,2.7,2.7,0,0,0,.3-1.2Z" transform="translate(-780.9 -290.4)"/>
    <rect class="svg-loading2 dot" x="503.3" y="231.2" width="7.8" height="12.21" rx="1.9"/>
    <rect class="svg-loading2" x="503.2" y="262.5" width="7.8" height="75.68" rx="1.9"/>
    <path class="svg-loading2" d="M1324.7,559.4a1.8,1.8,0,0,0,3.1,1.2,43.2,43.2,0,0,1,4.3-3.6,30.7,30.7,0,0,1,7.2-4,25.1,25.1,0,0,1,6.5-1.7,41.8,41.8,0,0,1,5.9-.4c15.6,0,23.3,9.2,23.3,27.6v48.2a1.9,1.9,0,0,1-1.8,1.9h-4.1a2,2,0,0,1-1.9-1.9V579.1a40.6,40.6,0,0,0-.9-9.1,14.3,14.3,0,0,0-3-6.3,12.9,12.9,0,0,0-5.5-3.8,24.9,24.9,0,0,0-20.9,2.6,56.9,56.9,0,0,0-11.8,10.2,2,2,0,0,0-.4,1.3v52.7a2,2,0,0,1-1.9,1.9h-4.1a2,2,0,0,1-1.9-1.9v-72a1.9,1.9,0,0,1,1.9-1.8h4.1a1.9,1.9,0,0,1,1.9,1.8Z" transform="translate(-780.9 -290.4)"/>
    <path class="svg-loading2" d="M1457.9,624.1a52.8,52.8,0,0,1-2,15.4,24.4,24.4,0,0,1-5.8,10.4,22.3,22.3,0,0,1-9.7,5.9,46.5,46.5,0,0,1-13.6,1.9,41.3,41.3,0,0,1-11.6-1.5,28,28,0,0,1-8.9-4,19.3,19.3,0,0,1-5.8-6.6,21.1,21.1,0,0,1-2.2-6.7,1.8,1.8,0,0,1,1.8-2.1h4.2a1.8,1.8,0,0,1,1.8,1.5,11.7,11.7,0,0,0,5.4,8.4c3.4,2.1,8.4,3.1,15,3.1a32.5,32.5,0,0,0,10.3-1.4,16.9,16.9,0,0,0,7.3-4.6,22.1,22.1,0,0,0,4.4-8.5,48.4,48.4,0,0,0,1.5-13h0a1.8,1.8,0,0,0-3.1-1.3,41.8,41.8,0,0,1-4,3.6,32.8,32.8,0,0,1-6.5,3.9,24.9,24.9,0,0,1-6,1.7l-5.6.3a26.6,26.6,0,0,1-12.6-2.8,26.2,26.2,0,0,1-9.2-8,34.8,34.8,0,0,1-5.6-12.3,62.6,62.6,0,0,1-1.9-16.2,55.1,55.1,0,0,1,2.3-16.8,38.7,38.7,0,0,1,6.3-12.7,28.2,28.2,0,0,1,9.6-8,25,25,0,0,1,11.8-2.8,37.3,37.3,0,0,1,5.7.4,35.6,35.6,0,0,1,6.1,1.4,38.1,38.1,0,0,1,6.3,2.8,25.6,25.6,0,0,1,3.5,2.2,1.8,1.8,0,0,0,2.9-1.5v-1.5a1.9,1.9,0,0,1,1.9-1.8h4.1a1.9,1.9,0,0,1,1.9,1.8Zm-7.9-53.7a1.7,1.7,0,0,0-.5-1.3,35.9,35.9,0,0,0-10.4-7.6,28.2,28.2,0,0,0-12.7-2.8,22.4,22.4,0,0,0-9.5,2,20.2,20.2,0,0,0-7.3,6.1,30.5,30.5,0,0,0-4.7,10.1,55.8,55.8,0,0,0-1.6,14.3c0,10.3,2,18.1,5.9,23.5s9.5,8,16.6,8a22.8,22.8,0,0,0,12.9-3.9,43.5,43.5,0,0,0,11-10.9,2.7,2.7,0,0,0,.3-1.2Z" transform="translate(-780.9 -290.4)"/>
    <polyline class="svg-loading1" points="287.7 253.5 304.6 253.5 299.7 263.3 279.2 303.9"/>
    <polyline class="svg-loading1" points="299.7 263.3 343.6 263.3 363.6 304.9"/>
    <polyline class="svg-loading1" points="343.6 263.3 359.1 263.3 363.1 254.2"/>
    <polyline class="svg-loading3" points="2.5 339.8 337.3 5 504.3 172 598.8 77.4 861.5 340.1"/>
</svg>
