<svg id="Email" xmlns="http://www.w3.org/2000/svg" viewBox="0 0 21 16.5">
  <path d="M107.53,1110.3v5.26a2.25,2.25,0,0,0,2.25,2.25h15a2.25,2.25,0,0,0,1.59-.66,2.21,2.21,0,0,0,.66-1.59v-10.5a2.21,2.21,0,0,0-.66-1.59,2.25,2.25,0,0,0-1.59-.66h-15a2.25,2.25,0,0,0-2.25,2.25h0v.25a2.2,2.2,0,0,0,.29,1.09,2.27,2.27,0,0,0,.78.82l7.5,4.62a2.36,2.36,0,0,0,1.18.33,2.3,2.3,0,0,0,1.18-.33l7.5-4.62a2.22,2.22,0,0,0,.79-.82,2.2,2.2,0,0,0,.28-1.1v-.24h0a2.21,2.21,0,0,0-.66-1.59,2.25,2.25,0,0,0-1.59-.66h-15a2.25,2.25,0,0,0-2.25,2.25v5.18l6,7.57,13.24-11.41" transform="translate(-106.78 -1102.06)" style="fill: none;stroke: #057b86;stroke-linecap: round;stroke-linejoin: round;stroke-width: 1.5px"/>
</svg>
