<svg id="Writing_Overlay" xmlns="http://www.w3.org/2000/svg" viewBox="0 0 169.61 803.91">
  <g>
    <polygon points="167.41 411.19 148.73 378.65 76.92 378.65 95.61 411.19 167.41 411.19" style="fill: #eadcc2"/>
    <polygon points="93.57 411.19 74.89 378.65 3.09 378.65 21.77 411.19 93.57 411.19" style="fill: #eadcc2"/>
    <polygon points="169.61 425.26 169.61 423.27 167.41 419.43 167.41 423.27 167.41 423.89 166.88 423.89 166.88 423.89 95.61 423.89 93.57 420.35 93.57 423.27 93.57 423.89 21.77 423.89 9.18 401.96 3.09 391.35 3.09 388.43 0 388.43 21.14 425.26 169.61 425.26" style="fill: #eadcc2"/>
  </g>
  <g>
    <polygon points="167.41 221.87 148.73 189.32 76.92 189.32 95.61 221.87 167.41 221.87" style="fill: #eadcc2"/>
    <polygon points="93.57 221.87 74.89 189.32 3.09 189.32 21.77 221.87 93.57 221.87" style="fill: #eadcc2"/>
    <polygon points="169.61 235.93 169.61 233.95 167.41 230.1 167.41 233.95 167.41 234.57 166.88 234.57 166.88 234.57 95.61 234.57 93.57 231.03 93.57 233.95 93.57 234.57 21.77 234.57 9.18 212.63 3.09 202.03 3.09 199.1 0 199.1 21.14 235.93 169.61 235.93" style="fill: #eadcc2"/>
  </g>
  <g>
    <polygon points="167.41 600.52 148.73 567.98 76.92 567.98 95.61 600.52 167.41 600.52" style="fill: #eadcc2"/>
    <polygon points="93.57 600.52 74.89 567.98 3.09 567.98 21.77 600.52 93.57 600.52" style="fill: #eadcc2"/>
    <polygon points="169.61 614.58 169.61 612.6 167.41 608.75 167.41 612.6 167.41 613.22 166.88 613.22 166.88 613.22 95.61 613.22 93.57 609.68 93.57 612.6 93.57 613.22 21.77 613.22 9.18 591.28 3.09 580.67 3.09 577.75 0 577.75 21.14 614.58 169.61 614.58" style="fill: #eadcc2"/>
  </g>
  <g>
    <polygon points="167.41 32.54 148.73 0 76.92 0 95.61 32.54 167.41 32.54" style="fill: #eadcc2"/>
    <polygon points="93.57 32.54 74.89 0 3.09 0 21.77 32.54 93.57 32.54" style="fill: #eadcc2"/>
    <polygon points="169.61 46.61 169.61 44.62 167.41 40.78 167.41 44.62 167.41 45.24 166.88 45.24 166.88 45.24 95.61 45.24 93.57 41.7 93.57 44.62 93.57 45.24 21.77 45.24 9.18 23.31 3.09 12.7 3.09 9.78 0 9.78 21.14 46.61 169.61 46.61" style="fill: #eadcc2"/>
  </g>
  <g>
    <polygon points="167.41 789.84 148.73 757.3 76.92 757.3 95.61 789.84 167.41 789.84" style="fill: #eadcc2"/>
    <polygon points="93.57 789.84 74.89 757.3 3.09 757.3 21.77 789.84 93.57 789.84" style="fill: #eadcc2"/>
    <polygon points="169.61 803.91 169.61 801.92 167.41 798.08 167.41 801.92 167.41 802.54 166.88 802.54 166.88 802.54 95.61 802.54 93.57 799 93.57 801.92 93.57 802.54 21.77 802.54 9.18 780.61 3.09 770 3.09 767.08 0 767.08 21.14 803.91 169.61 803.91" style="fill: #eadcc2"/>
  </g>
</svg>
