<svg xmlns="http://www.w3.org/2000/svg" viewBox="0 0 169.61 103.34">
  <g id="Writing_Stage">
    <g>
      <polygon points="167.41 85.88 148.73 53.33 76.92 53.33 95.61 85.88 167.41 85.88" style="fill: none"/>
      <polygon points="93.57 85.88 74.89 53.33 3.09 53.33 21.77 85.88 93.57 85.88" style="fill: none"/>
      <polygon id="Backup" points="167.41 94.11 167.41 97.96 167.41 98.58 166.88 98.58 166.88 98.58 95.61 98.58 93.57 95.04 93.57 97.96 93.57 98.58 21.77 98.58 9.18 76.64 3.09 66.03 3.09 63.11 0 63.11 3.09 68.5 3.09 68.5 0 63.11 0 68.5 20 103.34 169.61 103.34 169.61 97.96 167.41 94.11" style="fill: none"/>
      <polygon points="169.61 99.94 169.61 97.96 167.41 94.11 167.41 97.96 167.41 98.58 166.88 98.58 166.88 98.58 95.61 98.58 93.57 95.04 93.57 97.96 93.57 98.58 21.77 98.58 9.18 76.64 3.09 66.03 3.09 63.11 0 63.11 21.14 99.94 169.61 99.94" style="fill: none"/>
    </g>
    <g>
      <circle cx="32.96" cy="23.23" r="2.91" style="fill: #032e23"/>
      <polyline points="32.42 26.44 30.99 25.38 34.51 20.77 35.87 21.8" style="fill: #032e23"/>
      <circle cx="33.9" cy="23.94" r="2.91" style="fill: #032e23"/>
    </g>
    <g>
      <polygon points="25.15 17.16 28.65 26.37 28.65 19.79 25.15 17.16" style="fill: #032e23"/>
      <polyline points="28.65 19.79 37.52 19.79 34.23 17.16 25.15 17.16" style="fill: #032e23"/>
    </g>
    <polygon points="71.7 50.65 67.15 43.62 44.72 43.62 44.47 45.08 46.13 35.6 51.01 35.6 28.93 0 6.69 29.97 10.5 33.27 18.7 65.52 21.91 69.17 15.22 35.6 15.23 35.6 21.91 69.17 40.25 69.17 40.25 69.16 66.6 68.58 71.7 50.65" style="fill: #032e23"/>
    <path d="M222.34,226a14.8,14.8,0,0,0-5.25-9.43A14.75,14.75,0,0,0,190,222.42h2.27l1.32,1.36h0a14.44,14.44,0,0,0-.47,2.19h7.31a7.37,7.37,0,0,1,11-5.41,7.19,7.19,0,0,1,.5,1.86H213l1.4,1.44c-.09-.21-.2-.41-.31-.61A7.44,7.44,0,0,1,215,226Zm-28.4-3.34,0,.05Zm19.59-.21.18.24-.19-.24Zm.19.26a6.65,6.65,0,0,1,.36.56A6.65,6.65,0,0,0,213.72,222.68Z" transform="translate(-116.7 -146.84)" style="fill: #032e23"/>
  </g>
  <g id="Writing_Stage_Overlay">
    <g>
      <path d="M192.22,222.42l1.33,1.36a14.64,14.64,0,0,1,15.79-10.53,13.16,13.16,0,0,0-4.42-.77A12.93,12.93,0,0,0,192.22,222.42Z" transform="translate(-116.7 -146.84)" style="fill: #cd522d"/>
      <path d="M212.82,221.64a6.34,6.34,0,0,1,.18.78l1.4,1.44A7.14,7.14,0,0,0,212.82,221.64Z" transform="translate(-116.7 -146.84)" style="fill: #cd522d"/>
    </g>
    <g>
      <polygon points="21.91 69.17 18.7 65.52 9.39 28.9 14.83 33.61 21.91 69.17" style="fill: #cd522d"/>
      <polyline points="6.69 29.97 13.19 35.6 28.93 0" style="fill: #032e23"/>
      <path d="M145.63,146.84l-15.74,35.6H167.7Zm-.28,26.37-3.5-9.21h9.08l3.28,2.63h-8.86Zm5.25.48a2.9,2.9,0,0,1-1.48-.42h0l-.06-.05a2,2,0,0,1-.29-.22l-.65-.48a2.92,2.92,0,0,1-.28-.21l-.14-.1h0a2.88,2.88,0,0,1-.94-2.14,2.91,2.91,0,0,1,2.91-2.91,2.82,2.82,0,0,1,1.54.46h0l0,0,.17.13.75.56.26.2.15.11h0a2.9,2.9,0,0,1-2,5.05Z" transform="translate(-116.7 -146.84)" style="fill: #cd522d"/>
      <circle cx="30.67" cy="41.66" r="3.15" style="fill: #cd522d"/>
      <circle cx="50.92" cy="59.48" r="2.76" style="fill: #cd522d"/>
      <circle cx="62.03" cy="59.48" r="2.76" style="fill: #cd522d"/>
      <polygon points="34.12 69.17 28.84 69.17 26.76 58.88 35.91 58.88 34.12 69.17" style="fill: #cd522d"/>
      <polygon points="43.49 50.65 71.7 50.65 67.15 43.62 44.72 43.62 43.49 50.65" style="fill: #cd522d"/>
    </g>
    <circle cx="33.9" cy="23.94" r="2.91" style="fill: #cd522d"/>
  </g>
</svg>
