<svg id="Wechat" xmlns="http://www.w3.org/2000/svg" viewBox="0 0 25.81 23.8">
  <path d="M119.26,1122.15a1.34,1.34,0,1,1-1.17,1.33A1.25,1.25,0,0,1,119.26,1122.15Zm-5.86,2.66a1.26,1.26,0,0,1-1.17-1.33,1.18,1.18,0,1,1,1.17,1.33Zm4.09,9.49a6.35,6.35,0,0,1-.28-1.91,7.13,7.13,0,0,1,7.32-6.92l.66,0a7.08,7.08,0,0,1,6.66,6.89,6.78,6.78,0,0,1-2.53,5.24.57.57,0,0,0-.2.44,1.1,1.1,0,0,0,0,.18c.13.52.32,1.36.33,1.4a.65.65,0,0,1,0,.2.31.31,0,0,1-.07.2.25.25,0,0,1-.17.08.22.22,0,0,1-.14-.06l-1.61-1a.7.7,0,0,0-.39-.13.52.52,0,0,0-.21,0,7.87,7.87,0,0,1-2.39.38,7.3,7.3,0,0,1-7-4.88h-.71a6.83,6.83,0,0,1-.3-2,7.8,7.8,0,0,1,8-7.58H125a8.65,8.65,0,0,0-8.68-7,8.55,8.55,0,0,0-8.78,8.31,8.15,8.15,0,0,0,3,6.28.67.67,0,0,1,.25.54,1.52,1.52,0,0,1,0,.21l-.4,1.68a1,1,0,0,0,0,.24.31.31,0,0,0,.29.33.29.29,0,0,0,.17-.06l1.92-1.26a.8.8,0,0,1,.47-.15.82.82,0,0,1,.26,0,11.49,11.49,0,0,0,3.19.46l2.41,5.68,12.78-16.65m-9.76,7.81a1.12,1.12,0,1,1,1-1.11A1,1,0,0,1,122.09,1131.29Zm4.88,0a1.12,1.12,0,1,1,1-1.11A1,1,0,0,1,127,1131.29Z" transform="translate(-106.8 -1117.08)" style="fill: none;stroke: #057b86;stroke-linecap: round;stroke-linejoin: round;stroke-width: 1.5px"/>
</svg>
