<svg id="Layer_6" data-name="Layer 6" xmlns="http://www.w3.org/2000/svg" viewBox="0 0 253.42 1146.11">
  <path d="M337.15,279.84c-.57-.43-.9-.85-.92-1.22s.65-1.12.65-1.12S337,278.82,337.15,279.84Z" transform="translate(-134.13 270.42)" style="fill: #eadcc2"/>
  <path d="M376.42,277.29c.57.64.86,1.16.78,1.52s-1.15.81-1.15.81S376.25,278.31,376.42,277.29Z" transform="translate(-134.13 270.42)" style="fill: #eadcc2"/>
  <path d="M374.8,294.18a28.11,28.11,0,0,1-36.69-.12l-1.89-15.44c5.2,4.08,12.8,6.5,20.46,6.52s15.29-2.36,20.53-6.41" transform="translate(-134.13 270.42)" style="fill: #eadcc2"/>
  <polygon points="145.25 823.16 21.87 894.39 21.87 812.92 145.25 741.69 145.25 823.16" style="fill: #eadcc2"/>
  <polygon points="145.25 1074.88 21.87 1146.12 21.87 1064.64 145.25 993.41 145.25 1074.88" style="fill: #eadcc2"/>
  <polygon points="253.42 648.34 103.66 734.81 8.68 675.46 158.44 588.99 253.42 648.34" style="fill: none"/>
  <polygon points="149.76 575.44 0 661.9 0 563.01 149.76 476.55 149.76 575.44" style="fill: none"/>
  <polygon points="145.25 578.18 21.87 649.41 21.87 567.94 145.25 496.71 145.25 578.18" style="fill: #eadcc2"/>
  <polygon points="145.25 343.3 21.87 414.53 21.87 333.06 145.25 261.83 145.25 343.3" style="fill: #eadcc2"/>
  <polygon points="145.25 81.47 21.87 152.7 21.87 71.23 145.25 0 145.25 81.47" style="fill: #eadcc2"/>
</svg>
