<svg id="laptop" xmlns="http://www.w3.org/2000/svg" viewBox="0 0 253.42 258.26">
  <path d="M371.07,314.32a20.31,20.31,0,0,1-29.76-.11L336.57,275h40.17" transform="translate(-134.13 -206.13)" style="fill: #df5f3f"/>
  <path d="M377.27,267.43a31.9,31.9,0,0,0-41.11.13v6.74l41.11.74Z" transform="translate(-134.13 -206.13)" style="fill: #df5f3f"/>
  <path d="M379.65,273.22c-5.79-5-14.29-8-22.9-8.11s-17.18,2.59-23.11,7.35a7,7,0,0,0,0,1.94c.26.72,1.61,1.46,2.33,1.86a19.71,19.71,0,0,0,7,1.87,145.45,145.45,0,0,0,16.55,1.15c6.93.09,14.15-.39,20.19-3.79" transform="translate(-134.13 -206.13)" style="fill: #df5f3f"/>
  <g>
    <polygon points="8.68 180.34 8.67 180.34 8.67 189.1 8.68 189.09 8.68 180.34" style="fill: none"/>
    <polygon points="9.29 189.48 16.84 194.2 8.68 198.91 16.84 194.2 9.29 189.48" style="fill: none"/>
    <polygon points="253.41 161.98 158.44 102.64 158.44 3.83 149.76 8.85 149.76 8.77 158.44 3.76 149.76 0 0 86.46 0 185.35 8.67 189.1 8.67 180.34 8.68 180.34 8.68 189.09 8.67 189.1 8.68 198.91 16.84 194.2 9.29 189.48 16.84 194.2 8.68 198.91 103.66 258.26 253.42 171.8 253.41 161.98" style="fill: #df5f3f"/>
  </g>
</svg>
