<svg id="Phone" xmlns="http://www.w3.org/2000/svg" viewBox="0 0 21 21">
  <path d="M177.57,1111.13a15.23,15.23,0,0,0,1.75,2.46,15.78,15.78,0,0,0,1.65,1.62,15,15,0,0,0,9.65,3.51h2.25a2.21,2.21,0,0,0,1.59-.66,2.25,2.25,0,0,0,.66-1.59v-1.37a1.11,1.11,0,0,0-.85-1.09l-4.43-1.11a1.12,1.12,0,0,0-1.17.42l-1,1.29a1,1,0,0,1-1.21.38,12,12,0,0,1-7.14-7.14,1.06,1.06,0,0,1,.38-1.21l1.29-1a1.12,1.12,0,0,0,.42-1.17l-1.11-4.43a1.13,1.13,0,0,0-1.09-.85h-1.37a2.25,2.25,0,0,0-2.25,2.25v2.25a14.85,14.85,0,0,0,1.78,7.09l5.88,7.91,11.84-13.58" transform="translate(-174.87 -1098.47)" style="fill: none;stroke: #057b86;stroke-linecap: round;stroke-linejoin: round;stroke-width: 1.5px"/>
</svg>
