<svg id="Writing_Sheep" xmlns="http://www.w3.org/2000/svg" viewBox="0 0 125.74 116.75">
  <g>
    <line x1="54.48" y1="77.21" x2="54.48" y2="110.26" style="fill: none;stroke: #032e23;stroke-linecap: round;stroke-linejoin: round;stroke-width: 5px"/>
    <line x1="64.54" y1="95.85" x2="64.54" y2="114.25" style="fill: none;stroke: #032e23;stroke-linecap: round;stroke-linejoin: round;stroke-width: 5px"/>
    <line x1="88.25" y1="79.97" x2="88.25" y2="110.26" style="fill: none;stroke: #032e23;stroke-linecap: round;stroke-linejoin: round;stroke-width: 5px"/>
    <line x1="98.32" y1="91.62" x2="98.32" y2="114.25" style="fill: none;stroke: #032e23;stroke-linecap: round;stroke-linejoin: round;stroke-width: 5px"/>
  </g>
  <path d="M222.55,153.65a17.78,17.78,0,0,1-21.77-26.29c-6.66-2.69-9.05-10.9-9.41-18.07-.16-3.16-.07-6.43,1.22-9.32s4-5.32,7.19-5.4c2.68-.08,5.11,1.47,7.34,3-3.2-6.35-2.05-14.25,1.54-20.39a15.6,15.6,0,0,1,6-6.22,8.24,8.24,0,0,1,8.33.17c2.63-6.49,10.65-9.66,17.51-8.24S253,69.38,256.72,75.29c5.74-5.47,15.91-5.25,21.42.45s5.36,15.87-.3,21.42a7.78,7.78,0,0,1,8,.48,13.45,13.45,0,0,1,4.95,6.7c3.65,9.79-1.22,22-10.61,26.55,4,1.31,4.3,6.81,3.83,11-.78,6.84-2.34,14.83-8.58,17.74-3.43,1.59-7.53,1.13-11-.38a38.57,38.57,0,0,1-9.28-6.44c-.93,8.4-9.4,15.21-17.81,14.31s-15.69-5.07-14.82-13.48" transform="translate(-166.29 -62.52)" style="fill: #032e23"/>
  <path d="M186.56,90a58.39,58.39,0,0,0-14.08,12.21c-2.77,3.33-5.18,7.07-5.95,11.23s.34,8.79,3.7,11.61c4,3.37,10.3,3.43,15.16,1.27s8.5-6.12,11.52-10.27c2.92-4,5.45-8.33,6.33-13.08s-.07-10-3.46-13.61a6.09,6.09,0,0,0-2.65-1.81c-3.36-1-6.32,2.42-9.77,3" transform="translate(-166.29 -62.52)" style="fill: #032e23"/>
  <path d="M205.83,126.18a9.5,9.5,0,0,1-15.45-1.34c-1.77-3-1.73-6.78-1.12-10.22,1.17-6.58,4.2-12.65,7.19-18.62a11.47,11.47,0,0,1-4.4-.78,3.92,3.92,0,0,1-2.44-3.47c-2.29.87-5.08,1.66-7,.14s-1.74-4.57-1-6.93c.62-1.9,1.71-3.89,3.62-4.45-.07-.3-.14-.61-.19-.91a5.13,5.13,0,0,1,3.49-5.69c2.36-.61,5.13,1.32,5.09,3.76a20.49,20.49,0,0,1,4.14-8.3,5.47,5.47,0,0,1,3.44-2.27A4.25,4.25,0,0,1,204.9,69a12.52,12.52,0,0,1,1.67,3.94A16.78,16.78,0,0,1,211,69.61a5.69,5.69,0,0,1,5.35.15,4.35,4.35,0,0,1,1.05,6c1.69-1,3.82-1,5.8-.91a5.09,5.09,0,0,1,3,.85,3.44,3.44,0,0,1,.94,3.55,7.76,7.76,0,0,1-2.08,3.23c1.34-.71,2.8.65,3.69,1.88s1.73,2.51,1.43,3.92A4.82,4.82,0,0,1,227.91,91a9.19,9.19,0,0,1-4.23,1.76,4,4,0,0,1-3.93-1.89,9.91,9.91,0,0,1,.18,7.15,3.87,3.87,0,0,1-1.76,2.28,4.54,4.54,0,0,1-1.72.33c-2.52.11-5.37-.2-7-2.16,1.42,7.45.39,15.12-.65,22.64a10.06,10.06,0,0,1-1,3.75c-1,1.72-2.91,2.67-4.7,3.53" transform="translate(-166.29 -62.52)" style="fill: #cd522d"/>
  <circle cx="18.91" cy="41.88" r="2.62" style="fill: #cd522d"/>
</svg>
