<svg xmlns="http://www.w3.org/2000/svg" viewBox="0 0 1080 1044">
  <defs>
    <style>
      .cls-1 {
        fill: #eae5e1;
      }

      .cls-3 {
        fill: none;
        opacity: 0;
      }

      #om,#ma,#ni,#pem,#me,#hum{
        opacity:0
      }
    </style>
  </defs>
  <g id="om">
    <path id="path1017" class="cls-1" d="M779.1,256.9Q684.6,315.1,644,329.4,594.7,347,521,346.9q-66.9-1-122.9-23-52.8-22-117.5-84.6,70.2,33,114.2,40.7c26.3,4.4,54.1,5.4,83.4,3.3a398.8,398.8,0,0,0,92.2-20.9q47.3-16.5,152.7-74.7ZM541.9,217.4c-16.1,0-29.7-6.3-40.6-18.7s-16.5-27.4-16.5-45,5.5-32.6,16.5-45S525.8,90,541.9,90q26.4,0,45,18.7t18.7,45q0,26.4-18.7,45C574.5,211.1,559.5,217.4,541.9,217.4Zm8.8,751q-96.6-4.4-177.9-92.2T212.5,718.1c-8.8-7.3-16.1-16.9-22-28.6a111.7,111.7,0,0,1-11-37.3c0-5.9,3-6.6,8.8-2.2q92.3,59.3,180.1,137.3t202,77.9a96.3,96.3,0,0,0,39.6-8.8,114.5,114.5,0,0,0,35.1-24.1c7.3-11.7,11-23.5,11-35.2a87,87,0,0,0-5.5-31.8,97.6,97.6,0,0,0-16.5-27.5c-8.8-7.3-21.9-9.5-39.5-6.5-13.2,4.3-27.4,13.9-42.8,28.5s-31.1,22-47.2,22-31.5-8.1-41.8-24.2q-24.2-44-10.9-54.9a470.3,470.3,0,0,0,90-87.8,1163.9,1163.9,0,0,0,76.9-112q-30.7,8.7-85.7,8.7a204.7,204.7,0,0,1-63.7-5.4,552.2,552.2,0,0,0-63.7-12.1c-17.5-3-30.7,5.1-39.5,24.1-4.4,11.7-5.8,25.7-4.4,41.8a337.2,337.2,0,0,0,8.8,50.5c1.5,1.4.7,3.6-2.2,6.6-7.3,2.9-15.4,3.6-24.2,2.2-11.7-1.5-23.7-6.6-36.2-15.4s-22.3-17.6-29.6-26.4c-3-4.4-4.4-11.7-4.4-21.9a221.5,221.5,0,0,1,11-69.2q11-34,35.1-51.6a128.1,128.1,0,0,1,30.7-16.5c10.3-3.6,22.7-5.5,37.4-5.5q30.8,2.3,61.5,5.5a576,576,0,0,0,61.5,3.3A977.8,977.8,0,0,0,644,404a565.1,565.1,0,0,0,126.3-41.7c17.6,5.9,31.5,16.1,41.7,30.8a135.7,135.7,0,0,1,17.6,26.3c4.4,8.8,6.6,16.8,6.6,24.2,0,10.2-3,16.8-8.8,19.7Q732.9,527.1,649.5,650q28.5,13.2,48.3,30.7,54.9,57.1,57.1,138.4-4.4,61.5-35.1,92.2-37.3,37.4-80.2,48.3A294.9,294.9,0,0,1,550.7,968.4Z" transform="translate(0 -5.3)"/>
  </g>
  <g id="ma">
    <path id="path1019" class="cls-1" d="M923.4,944q-138-27-207-102.8Q670.5,783,655.5,720.8q-27-21.6-104.1-31.1-73-8.1-129.9,21.6T314.7,785.7a532.7,532.7,0,0,1-58.2-33.8c-18-12.6-35.2-29.3-51.4-50-15.3-18.1-19.8-30.2-13.5-36.6,6.3-9,25.2-19.3,56.8-31.1s60.9-32.9,87.9-60.8q33.9-40.6,28.4-89.3-9.4-42-39.2-56.8-43.3-20.4-77.1-66.3-36.6-50.1,6.8-29.8,1.4-31.1,14.8-50c15.4-19,32.9-28.9,52.8-29.8,36.1-2.7,67.6-9.4,94.7-20.3a308.5,308.5,0,0,0,75.7-41.9Q542,227,555.4,255.5c11.8,23.4,4.6,39.7-21.6,48.7q-96,40.5-138,92c17.2,22.5,33.8,49.1,50.1,79.8s17.1,65.8,2.7,108.2q90.6-10.8,205.6,29.7V232.5q0-70.4,36.5-100.1c16.2-11.7,32.5-17.6,48.7-17.6q14.9,0,39.2,27.1c16.3,17.1,28.4,33.8,36.6,50q18.9,37.9-6.8,43.3-31,4.1-41.9,18.9c-7.3,10.8-10.9,25.3-10.9,43.3q5.4,220.5,10.9,362.5T923.4,944Z" transform="translate(0 -5.3)"/>
  </g>
  <g id="ni">
    <path id="path1021" class="cls-1" d="M413.5,1026.4c-35.3-12.6-62.6-24.3-81.9-34.9s-40.7-29.7-66-57a880.4,880.4,0,0,1-74-100,727.6,727.6,0,0,1-61-120,624.3,624.3,0,0,1-34-129.9,957,957,0,0,1-10-140q0-72.9,17-118a509.7,509.7,0,0,1,46-87.9q29-43,71-82,37.1-37,83-55t105.9-19q62.1,0,116,42,49.9,39,56,101a237.2,237.2,0,0,1,0,43l-69-7a101,101,0,0,0,0-28c-4-25.4-13-45-27-59q-44-40-100-40c-25.9,0-50.3,7.7-72.9,23s-44.4,35.7-67,61q-57,63.9-82,140.9a490.6,490.6,0,0,0-15,68,471.5,471.5,0,0,0-5,70,596.9,596.9,0,0,0,20,154,704,704,0,0,0,54,139.9,895.6,895.6,0,0,0,80,129q25.9,33,46,52T413.5,1026.4Z" transform="translate(0 -5.3)"/>
    <path id="path1023" class="cls-1" d="M993.4,726.5q-69-13.9-133-83.9-48.9-54-66-117t-11-224.9q2.1-34.1-21-54c-14-10.7-28.3-16-43-16-8.6,0-15.6,4.6-20.9,14-10,20-16.4,43.3-19,69.9s-3,52.7-3,78v70a331.6,331.6,0,0,0,4,53c3.3,16.7,4.6,31,4,43s-5.7,18.6-15,24c-4.7,2.6-11,3.3-19,2a183,183,0,0,1-38-12c-12.7-5.4-19-14.7-19-28q0-116-2-155c-1.3-26-6.3-47.6-15-65-7.3-12-17.7-17.9-31-17.9q-22.9,0-38,27.9a193.6,193.6,0,0,0-11,33c-2,11.4-3,29.7-3,55v70a162.2,162.2,0,0,0,5,41c3.3,12.6,7,25.6,11,39,3.3,9.3-2,14-16,14-12,0-24.6-3.4-38-10s-22.6-14-30-22c-4-4-6-10.7-6-20l1-96c0-41.3,2.4-74,7-98s15.4-43.9,32-59.9q41-38.1,94-34a211.6,211.6,0,0,1,43,8q10.9-48,43-74c22-17.3,48.3-24.7,78.9-22q78,10.1,128,64c22.7,26.6,33,62,31,105.9-1.3,28-4,56.4-8,85a443.6,443.6,0,0,0-4,83,305.8,305.8,0,0,0,22,97q19.1,46.9,57,84.9Q973.4,704.6,993.4,726.5Z" transform="translate(0 -5.3)"/>
  </g>
  <g id="pem">
    <path id="path1025" class="cls-1" d="M952.2,967q-97.7-16.3-167.1-82.8-57.6-54.7-94.6-130.1-26.6-54.7-31-90.2a372,372,0,0,0-47.3-2.9q-32.6,1.5-69.5,14.8c-23.7,8.8-57.7,13.3-102,13.3q-70.9-3-108-53.3Q276.6,559,251.4,439.2,193.8,409.7,145,352q-16.2-28,17.7-17.7,14.9-63.6,56.2-87.3A307.7,307.7,0,0,1,312,220.4q48.9-5.8,127.2-63.5,79.8,45.8,99,72.4c17.8,27.6,16.8,44.3-2.9,50.3q-94.6,20.7-158.2,84.2-22.2,22.2-23.7,63.6,7.5,62.1,42.9,124.2,10.3,19.2,93.1,2.9A537.8,537.8,0,0,1,658,545.7V273.6q0-106.4,48.8-155.2,26.6-26.6,59.1-26.6c9.9,0,24.1,8.4,42.9,25.1s35,30.6,45.8,44.4q19.2,26.5,25.1,62.1c1,11.8-2.9,17.7-11.8,17.7q-35.5,0-59.1,19.2-22.2,22.2-22.2,66.6V644.7q0,79.8,19.2,140.4t85.8,128.7C914.2,935.4,934.4,953.2,952.2,967Z" transform="translate(0 -5.3)"/>
  </g>
  <g id="me">
    <path id="path1027" class="cls-1" d="M871.6,978.5q-99-19.8-144.4-62.3a161.7,161.7,0,0,1-42.5-72.7q-18.9-12.3-72.7-18.9-51-4.8-90.6,12.3a339.8,339.8,0,0,0-74.6,46.2c-13.8-6.3-27.4-13.2-40.6-20.7s-24.5-17.7-35.9-30.3c-10-10-13.2-17.3-9.4-21.7s18.2-12.2,41.5-19.8a296.7,296.7,0,0,0,56.7-29.3q85.9-63.1,85.9-149.1a433.2,433.2,0,0,1-1-74.6c-35.8-40.3-70.8-64.2-104.7-71.8q-52.9-7.5-81.2-17c-3.8-1.2-7.3-5-10.4-11.3a188.3,188.3,0,0,1-16.1-56.6q-2.9-18.9,5.7-18.9a302.2,302.2,0,0,0,75.5-9.5q36.9-10.3,67-43.4-43.4-29.2-67-77.4c-5.6-11.3-.6-13.5,15.1-6.6,3.2-18.3,10.7-32.4,22.7-42.5s25.5-14.1,40.6-12.3a342.8,342.8,0,0,0,51.9,3.8q68.9,0,182.2-43.4c23.9,14.5,39.7,26.7,47.2,36.8s10.4,19.2,10.4,31.2c0,9.4-3.8,15.1-11.3,17Q721.5,227,671.5,250.6t-80.3,57.6q-57.5,91.5-105.7,113.3,39.6,19.8,72.7,55.7Q578,415.9,624.3,379t95.3-41.6c7.6-.6,14.5,2.2,20.8,8.5a351.8,351.8,0,0,1,31.2,35.9q15,20.8,12.2,45.3c-1.2,10.1-6.6,12.9-16,8.5s-20.5-6-34.9-4.7q-36,3.8-65.2,30.2-48.2,43.5-48.1,117.1V615q0,86.8-78.4,151.1,62.4-11.4,142.6,13.2V548.9q0-42.4,25.5-60.4c11.3-6.9,22.6-10.4,33.9-10.4,7,0,16.1,5.4,27.4,16.1s19.9,20.7,25.5,30.2c9.5,15.7,7.9,24.5-4.7,26.4-14.5,1.9-24.2,5.7-29.3,11.3s-7.5,15.1-7.5,26.5q3.8,133,7.5,218T871.6,978.5Z" transform="translate(0 -5.3)"/>
    <path id="path1029" class="cls-1" d="M472.3,197.7s-1.6,14.8-4.7,44.4c-39.7-22.7-74-30.8-102.9-24.6-27.7,8.9-34.6,27.4-20.8,55.7,8.8,17.7,9.4,32.1,1.9,43.5-3.8,5.6-11.3,8.8-22.7,9.4Q282.6,329,230.6,294c5.7-1.9,9.5-3.8,11.3-5.6q8.5-8.5,17-46.3,12.3-55.6,64.2-72.7Q399.6,150.5,472.3,197.7Z" transform="translate(0 -5.3)"/>
  </g>
  <g id="Layer_7" data-name="Layer 7">
    <rect class="cls-3" width="1080" height="1044.05"/>
  </g>
  <g id="hum">
    <path id="path1031" class="cls-1" d="M532,683q35.6,17.3,72.8,43.7,101.1,77.4,200.3,182.1c22.5,22.4,38.2,41.9,47.3,58.2-19.4-5.4-42.4-17.6-69.1-36.4Q530.1,728.6,463.7,724.9t-70.1,52.8q0,34.6,21.9,58.3,25.5,20.8,54.6,3.6,28.2-12.7,14.6,36.4-10.1,29.1-61.9,29.1c-26.1.6-50.4-13.9-72.9-43.7q-21.7-30-21.8-69.1.9-45.6,18.2-76.5,25.5-48.3,98.3-51Q482,664.8,532,683ZM847,825q-101.1-17.2-163-84.6-45.4-51-45.5-110.2c.6-39.4-4.8-67-16.4-82.8-6.6-8.5-16.1-12.8-28.2-12.8s-22.4,6.1-29.1,18.2a153,153,0,0,0-17.3,51,424,424,0,0,0-3.7,55.5c0,10.4,1.3,22.2,3.7,35.6a210.4,210.4,0,0,1,3.6,37.3q0,29.1-29.1,13.6-24.6-13.6-47.3-38.2c-8.5-9.7-13.4-18.8-14.6-27.3a280,280,0,0,1,0-31.9q-59.2-17.2-108.3-61.9-29.2-29.1-29.2-62.8,0-35.6,26.4-57.3,16.5-14.7,92.9-63.8-41.8-20-66.5-69.2c-3-8.4,1.2-10.9,12.8-7.2q4.5-24.6,21.8-39.2c18.2-15.2,38.6-20.6,61-16.4s44,6.7,61,3.7q49.2-9.2,120.2-40.1,44.5,21.9,51.9,33.7t2.7,27.3c-3.6,7.9-10.9,14.6-21.9,20q-77.2,42.9-126.5,87.4-81.9,78.3-142,112-17.2,9.1-22.8,21.9c-4.2,12.1-.9,23.6,10.1,34.5a111.8,111.8,0,0,0,23.6,17.3,155.4,155.4,0,0,0,37.3,15.5q9.1-77.4,39.2-110.1,34.6-33.7,87.4-31,70,2.7,111,54.6,25.5,33.8,25.5,115.6,0,48.3,12.8,81.1c8.5,21.2,23,41.2,43.7,60.1Q815.1,798.6,847,825Z" transform="translate(0 -5.3)"/>
    <path id="path1033" class="cls-1" d="M547.5,209.6c-17,0-31.3-6.6-42.8-20s-17.3-29.1-17.3-47.3,5.8-34,17.3-47.4,25.8-20,42.8-20,34,6.7,47.3,20,20,29.2,20,47.4-6.6,34-20,47.3S565.7,209.6,547.5,209.6Z" transform="translate(0 -5.3)"/>
  </g>
</svg>
